Coordinates
version=1
nRows=17
nColumns=24
inDegrees=yes

Units are S.I. units (second, meters, Newtons, ...)
Angles are in degrees.

endheader
time	pelvis_tilt	pelvis_list	pelvis_rotation	pelvis_tx	pelvis_ty	pelvis_tz	hip_flexion_r	hip_adduction_r	hip_rotation_r	knee_angle_r	ankle_angle_r	subtalar_angle_r	mtp_angle_r	hip_flexion_l	hip_adduction_l	hip_rotation_l	knee_angle_l	ankle_angle_l	subtalar_angle_l	mtp_angle_l	lumbar_extension	lumbar_bending	lumbar_rotation
      0.68700000	      1.07820069	     -5.15351849	      2.82487135	     -0.47399147	      1.00082823	      0.30830464	      8.75532958	     10.37894626	     -1.76416885	    -16.43300374	      6.11412104	    -16.58995900	     -4.61777000	     19.68119065	     -5.21776509	      1.10777424	    -70.84877806	     -8.51388273	     -7.79435537	      3.88412976	     -1.80839644	      9.28128459	      2.79764845
      0.69116667	      1.15022348	     -5.01383596	      2.83850107	     -0.46861419	      1.00185264	      0.30840838	      8.06000053	     10.26638380	     -1.68290357	    -15.93276152	      6.15734703	    -16.54487512	     -4.64305995	     20.20672664	     -4.98965321	      1.17007176	    -70.58031427	     -7.94575873	     -8.06552517	      3.81698001	     -1.89851892	      9.11485076	      2.86831880
      0.69533333	      1.24720881	     -4.86764718	      2.84681521	     -0.46322345	      1.00288062	      0.30852234	      7.32579120	     10.15087436	     -1.57490636	    -15.41087514	      6.19896214	    -16.51188319	     -4.69035631	     20.67695499	     -4.76090793	      1.21848161	    -70.23160416	     -7.40854307	     -8.32212994	      3.69271079	     -2.01401034	      8.96178436	      2.98074368
      0.69950000	      1.28301045	     -4.72182947	      2.82462817	     -0.45786506	      1.00375461	      0.30867286	      6.69264524	     10.02998370	     -1.48042345	    -14.96071209	      6.26318151	    -16.46562492	     -4.71922221	     21.19960984	     -4.54419272	      1.22577561	    -69.83989459	     -6.81270734	     -8.60530584	      3.62289021	     -2.06239840	      8.77783703	      3.05762847
      0.70366667	      1.35295486	     -4.57288333	      2.79915561	     -0.45247135	      1.00466568	      0.30881157	      6.00318639	      9.90638983	     -1.36729593	    -14.47382906	      6.31473075	    -16.41991394	     -4.75825175	     21.65201033	     -4.32976717	      1.22013705	    -69.36440856	     -6.25549336	     -8.88164740	      3.53006144	     -2.14257063	      8.60963088	      3.17473568
      0.70783333	      1.43860318	     -4.41133408	      2.76424749	     -0.44710906	      1.00555409	      0.30894644	      5.29960069	      9.76907686	     -1.23051923	    -13.99035380	      6.36766848	    -16.37215421	     -4.81664499	     22.06327621	     -4.10096649	      1.20761354	    -68.82155112	     -5.71422374	     -9.14680729	      3.39271854	     -2.26564882	      8.43793068	      3.32902257
      0.71200000	      1.43213578	     -4.26337647	      2.70738681	     -0.44177739	      1.00622169	      0.30910706	      4.73244788	      9.63863869	     -1.10542272	    -13.58043191	      6.44503824	    -16.31009669	     -4.84374453	     22.56613328	     -3.89327859	      1.17185839	    -68.24522135	     -5.12079330	     -9.41834791	      3.33085142	     -2.28101022	      8.26941339	      3.41046196
      0.71616667	      1.48975189	     -4.11079493	      2.63185485	     -0.43639971	      1.00695858	      0.30929377	      4.07991828	      9.50363213	     -0.97863594	    -13.14096459	      6.50449606	    -16.24623362	     -4.88227973	     22.95869840	     -3.70297752	      1.09761438	    -67.58466136	     -4.55972910	     -9.68606273	      3.24223226	     -2.34474043	      8.09555988	      3.55088697
      0.72033333	      1.55185065	     -3.95638926	      2.55492958	     -0.43104631	      1.00763661	      0.30946899	      3.42724224	      9.36391374	     -0.83907386	    -12.70751563	      6.57081035	    -16.16974870	     -4.92439975	     23.32881967	     -3.51153770	      1.02169877	    -66.87065350	     -4.01528356	     -9.94384244	      3.14182989	     -2.43655395	      7.92315456	      3.70758228
      0.72450000	      1.61311780	     -3.80738012	      2.48784920	     -0.42569176	      1.00826638	      0.30963817	      2.76799470	      9.22887793	     -0.70171855	    -12.25317936	      6.64635151	    -16.08420549	     -4.99886845	     23.68119382	     -3.32536793	      0.95342091	    -66.09701121	     -3.52418578	    -10.18434508	      2.95702184	     -2.53678895	      7.74306324	      3.93340893
      0.72866667	      1.63001206	     -3.65642901	      2.37097341	     -0.42036283	      1.00877161	      0.30984558	      2.19801144	      9.08308078	     -0.56444146	    -11.88435438	      6.71706696	    -15.99614075	     -5.03978650	     24.05262438	     -3.15447832	      0.83466318	    -65.27080650	     -2.96444494	    -10.43172828	      2.85231676	     -2.57329392	      7.58670245	      4.04255241
      0.73283333	      1.69692146	     -3.52659736	      2.29396037	     -0.41501203	      1.00927343	      0.31001951	      1.54333441	      8.96217103	     -0.43932405	    -11.44540691	      6.79765366	    -15.88381679	     -5.12026694	     24.35992003	     -3.00132182	      0.75117978	    -64.39538880	     -2.50203634	    -10.65586320	      2.63416125	     -2.67754521	      7.43085440	      4.27626920
      0.73700000	      1.69742123	     -3.38434257	      2.17194612	     -0.40970289	      1.00961660	      0.31021833	      1.01293890	      8.81639541	     -0.32489074	    -11.12075274	      6.99055923	    -15.72275068	     -6.30756197	     24.71287365	     -2.84231702	      0.62888960	    -63.47558970	     -1.94502044	    -10.84083264	     -0.64169908	     -2.70714250	      7.26977668	      4.51993731
      0.74116667	      1.70177401	     -3.27853422	      2.07146463	     -0.40437434	      1.00988929	      0.31041311	      0.44835728	      8.71214386	     -0.19688939	    -10.71143026	      6.99048210	    -15.60627925	     -6.32819433	     25.05296134	     -2.72556900	      0.52851684	    -62.51216247	     -1.49076169	    -11.04420710	     -0.66098649	     -2.73084436	      7.15094011	      4.60005656
      0.74533333	      1.71882775	     -3.16361132	      1.95832905	     -0.39904802	      1.01013266	      0.31061466	     -0.11365781	      8.59383703	     -0.08208936	    -10.34159598	      7.07780788	    -15.49081483	     -6.34683378	     25.35032733	     -2.60946609	      0.40355961	    -61.48612186	     -1.06778640	    -11.24868880	     -0.69763206	     -2.77324565	      7.01413722	      4.75143763
      0.74950000	      1.70607920	     -3.06138736	      1.83670788	     -0.39375830	      1.01025816	      0.31080869	     -0.62276508	      8.48435978	      0.03767182	    -10.00659721	      7.15634130	    -15.36680178	     -6.35771166	     25.66403117	     -2.50268808	      0.28792920	    -60.41843237	     -0.65364865	    -11.43312195	     -0.73161684	     -2.79161457	      6.91051596	      4.86893056
      0.75366667	      1.72314741	     -2.95188327	      1.72458813	     -0.38843367	      1.01038742	      0.31100632	     -1.17496359	      8.36594716	      0.12939231	     -9.64791720	      7.24348837	    -15.22403272	     -6.37150785	     25.91709989	     -2.39473562	      0.16439633	    -59.28615495	     -0.31291517	    -11.62538019	     -0.78899766	     -2.83704707	      6.78151960	      5.04156788
